<?xml version="1.0" encoding="utf-8"?>
<!-- Generator: Adobe Illustrator 16.2.1, SVG Export Plug-In . SVG Version: 6.00 Build 0)  -->
<!DOCTYPE svg PUBLIC "-//W3C//DTD SVG 1.1//EN" "http://www.w3.org/Graphics/SVG/1.1/DTD/svg11.dtd">
<svg version="1.1" id="Layer_1" xmlns="http://www.w3.org/2000/svg" xmlns:xlink="http://www.w3.org/1999/xlink" x="0px" y="0px"
	 width="696.963px" height="54.246px" viewBox="252.482 0.485 696.963 54.246"
	 enable-background="new 252.482 0.485 696.963 54.246" xml:space="preserve">
<g>
	<path fill="#FFFFFF" d="M273.148,1.367c5.732,0,9.072,0.882,11.529,3.024c2.143,1.953,3.213,4.599,3.213,8.064
		c0,6.489-3.087,9.892-9.639,10.899c3.653,0.314,5.543,2.016,6.678,5.985l2.771,8.757c0.315,0.883,0.631,1.135,1.576,1.135h1.134
		c1.638,0,2.583,0.756,2.583,2.079s-0.945,2.079-2.583,2.079h-4.978c-1.512,0-2.016-0.378-2.457-1.827l-3.592-11.277
		c-1.196-3.843-3.213-5.167-7.749-5.167h-5.481c-1.07,0-1.512,0.441-1.512,1.513V37.72c0,1.07,0.441,1.512,1.512,1.512h2.08
		c1.638,0,2.582,0.756,2.582,2.079s-0.944,2.079-2.582,2.079h-13.168c-1.639,0-2.584-0.756-2.584-2.079s0.945-2.079,2.584-2.079
		h2.457c1.07,0,1.512-0.441,1.512-1.512V7.1c0-1.134-0.441-1.575-1.512-1.575h-2.457c-1.639,0-2.584-0.756-2.584-2.079
		c0-1.323,0.945-2.079,2.584-2.079H273.148z M271.509,20.898c7.309,0,10.648-2.457,10.648-7.75c0-5.104-2.898-7.624-8.758-7.624
		h-7.246c-1.07,0-1.512,0.441-1.512,1.575v12.223c0,1.134,0.441,1.575,1.512,1.575H271.509z"/>
	<path fill="#FFFFFF" d="M318.129,37.341c-1.89,4.789-5.166,6.805-11.025,6.805c-6.805,0-10.773-3.275-10.773-8.946
		c0-3.78,1.827-6.615,5.292-8.19c1.89-0.819,5.922-1.387,10.018-1.387l4.536,0.127h0.315c0.756,0,1.196-0.315,1.196-0.945v-0.126
		c0-3.339-0.378-4.537-1.7-5.733c-1.261-1.008-3.15-1.575-5.607-1.575s-4.284,0.441-5.481,1.386
		c-1.261,1.008-1.575,1.575-1.953,3.528c-0.378,1.512-1.323,2.394-2.709,2.394c-1.575,0-2.71-1.197-2.71-2.772
		c0-2.646,2.017-5.67,4.789-7.056c1.953-1.071,4.725-1.575,8.064-1.575c4.599,0,8.001,1.008,10.018,3.024
		c1.827,1.89,2.394,3.843,2.394,8.316v13.294c0,1.134,0.441,1.575,1.513,1.575h1.448c1.513,0,2.395,0.693,2.395,1.953
		s-0.882,1.953-2.395,1.953h-5.229c-1.701,0-2.395-0.693-2.395-2.331V37.341z M305.213,30.286c-2.079,0.756-3.339,2.521-3.339,4.662
		c0,3.149,2.395,5.103,6.237,5.103c3.213,0,5.985-1.196,7.561-3.275c1.071-1.387,2.016-4.284,2.016-6.301
		c0-1.008-0.378-1.134-3.275-1.134C309.057,29.34,307.23,29.529,305.213,30.286z"/>
	<path fill="#FFFFFF" d="M351.707,16.488c0-1.512,0.818-2.458,2.079-2.458c1.323,0,2.142,0.945,2.142,2.583v4.851
		c0,1.638-0.756,2.583-2.142,2.583c-0.819,0-1.575-0.379-2.017-1.071c-0.252-0.378-0.252-0.378-0.818-2.079
		c-0.631-2.016-3.844-3.528-7.372-3.528c-4.158,0-6.93,1.764-6.93,4.41c0,2.394,1.26,3.339,5.229,3.906l3.906,0.567
		c3.97,0.566,5.923,1.134,7.561,2.331c1.891,1.386,2.961,3.591,2.961,6.237c0,5.67-4.599,9.324-11.781,9.324
		c-4.852,0-7.875-1.574-9.45-4.852v1.576c0,1.574-0.757,2.52-2.079,2.52c-1.323,0-2.143-0.945-2.143-2.583v-5.292
		c0-1.576,0.882-2.584,2.331-2.584c1.071,0,1.449,0.441,2.457,2.646c1.261,2.898,4.032,4.473,7.812,4.473
		c4.348,0,7.309-1.953,7.309-4.725c0-1.323-0.567-2.52-1.575-3.15c-0.945-0.566-2.268-0.882-5.104-1.26l-3.654-0.504
		c-3.527-0.441-5.544-1.197-6.993-2.457s-2.331-3.402-2.331-5.67c0-3.087,1.26-5.355,3.906-6.931
		c2.269-1.386,4.852-2.079,7.876-2.079c3.339,0,5.985,0.882,7.497,2.583c0.314,0.315,0.441,0.504,1.323,1.827V16.488z"/>
	<path fill="#FFFFFF" d="M370.354,48.494c0,1.134,0.441,1.574,1.513,1.574h1.575c1.512,0,2.394,0.693,2.394,1.953
		c0,1.261-0.882,1.953-2.394,1.953h-11.278c-1.512,0-2.394-0.692-2.394-1.953c0-1.26,0.882-1.953,2.394-1.953h1.387
		c1.07,0,1.512-0.44,1.512-1.574V19.449c0-1.071-0.441-1.512-1.512-1.512h-1.387c-1.512,0-2.394-0.693-2.394-1.953
		c0-1.26,0.882-1.953,2.394-1.953h5.797c1.701,0,2.394,0.693,2.394,2.395v2.835c0,0.189,0.063,0.252,0.189,0.252
		c0.062,0,0.126-0.063,0.126-0.126c2.016-4.095,5.481-6.111,10.647-6.111c4.222,0,7.561,1.26,10.081,3.843
		c2.835,2.835,4.032,6.363,4.032,11.593c0,9.576-5.481,15.436-14.303,15.436c-4.599,0-8.001-1.701-10.144-5.166
		c-0.126-0.126-0.188-0.189-0.314-0.189c-0.189,0-0.315,0.127-0.315,0.379V48.494z M370.417,28.584c0,3.401,0.566,5.67,1.953,7.623
		c1.764,2.458,4.473,3.843,7.687,3.843c5.985,0,9.828-4.41,9.828-11.34c0-6.805-3.78-11.341-9.576-11.341
		C374.26,17.37,370.417,21.717,370.417,28.584z"/>
	<path fill="#FFFFFF" d="M409.035,19.764c1.701-4.221,5.418-6.489,10.773-6.489c8.82,0,14.176,5.67,14.176,15.122
		c0,5.48-1.197,9.135-4.032,11.906c-2.521,2.521-5.985,3.844-10.144,3.844c-5.481,0-9.514-2.457-11.025-6.741v3.906
		c0,1.513-0.567,2.079-2.079,2.079h-5.859c-1.513,0-2.395-0.693-2.395-1.953s0.882-1.953,2.395-1.953h1.638
		c0.882,0,1.261-0.378,1.261-1.26V6.596c0-0.945-0.379-1.323-1.261-1.323h-1.638c-1.513,0-2.395-0.693-2.395-1.953
		c0-1.26,0.882-1.953,2.395-1.953h6.174c1.449,0,2.017,0.567,2.017,2.079V19.764z M408.846,28.521
		c0,7.246,3.592,11.529,9.766,11.529c5.923,0,9.829-4.473,9.829-11.277c0-6.867-3.844-11.403-9.766-11.403
		C412.69,17.37,408.846,21.717,408.846,28.521z"/>
	<path fill="#FFFFFF" d="M444.567,29.97c-0.441,0-0.693,0.189-0.693,0.693c0,2.016,1.134,4.725,2.835,6.553
		c1.765,1.89,4.284,2.834,7.561,2.834c2.583,0,4.662-0.629,6.301-1.89c0.944-0.692,1.008-0.882,2.142-2.646
		c0.378-0.693,1.134-1.135,1.891-1.135c1.322,0,2.394,1.071,2.394,2.395c0,0.882-0.44,1.764-1.449,2.835
		c-3.023,3.214-6.552,4.536-11.907,4.536c-5.733,0-9.766-1.891-12.538-5.796c-1.827-2.646-2.709-5.607-2.709-9.262
		c0-9.892,5.733-15.814,15.247-15.814c6.489,0,10.773,2.394,13.042,7.246c0.944,2.079,1.448,4.599,1.448,6.931
		c0,1.826-0.692,2.52-2.394,2.52H444.567z M462.018,26.064c0.505,0,0.757-0.252,0.757-0.63c0-2.079-1.261-4.599-3.088-6.174
		c-1.512-1.26-3.528-1.89-5.985-1.89c-3.654,0-6.426,1.449-8.253,4.284c-0.756,1.26-1.387,2.961-1.387,3.844
		c0,0.377,0.253,0.566,0.693,0.566H462.018z"/>
	<path fill="#FFFFFF" d="M481.925,20.52c1.009-3.15,1.575-4.095,2.962-5.229c1.638-1.26,4.032-2.016,6.3-2.016
		c1.765,0,2.835,0.819,2.835,2.205c0,1.071-0.882,2.079-1.764,2.079c-0.063,0-0.252,0-0.441-0.063
		c-0.378-0.063-0.756-0.126-1.196-0.126c-2.143,0-4.285,0.882-5.797,2.457c-1.827,1.89-2.709,4.663-2.709,8.442v9.703
		c0,1.07,0.441,1.512,1.512,1.512h2.457c1.513,0,2.395,0.693,2.395,1.953s-0.882,1.953-2.395,1.953h-12.285
		c-1.513,0-2.395-0.693-2.395-1.953s0.882-1.953,2.395-1.953h1.512c1.071,0,1.513-0.441,1.513-1.512V19.449
		c0-1.071-0.441-1.512-1.513-1.512h-1.512c-1.513,0-2.395-0.693-2.395-1.953c0-1.26,0.882-1.953,2.395-1.953h5.733
		c1.701,0,2.394,0.693,2.394,2.395V20.52z"/>
	<path fill="#FFFFFF" d="M507.566,20.52c1.009-3.15,1.575-4.095,2.962-5.229c1.638-1.26,4.032-2.016,6.3-2.016
		c1.765,0,2.835,0.819,2.835,2.205c0,1.071-0.882,2.079-1.764,2.079c-0.063,0-0.252,0-0.441-0.063
		c-0.378-0.063-0.756-0.126-1.196-0.126c-2.143,0-4.285,0.882-5.797,2.457c-1.827,1.89-2.709,4.663-2.709,8.442v9.703
		c0,1.07,0.441,1.512,1.512,1.512h2.457c1.513,0,2.395,0.693,2.395,1.953s-0.882,1.953-2.395,1.953h-12.285
		c-1.513,0-2.395-0.693-2.395-1.953s0.882-1.953,2.395-1.953h1.512c1.071,0,1.513-0.441,1.513-1.512V19.449
		c0-1.071-0.441-1.512-1.513-1.512h-1.512c-1.513,0-2.395-0.693-2.395-1.953c0-1.26,0.882-1.953,2.395-1.953h5.733
		c1.701,0,2.394,0.693,2.394,2.395V20.52z"/>
	<path fill="#FFFFFF" d="M539.254,36.837c0.252,0.631,0.315,0.883,0.504,1.576c0.063-0.253,0.126-0.568,0.126-0.631
		c0.063-0.126,0.189-0.504,0.379-0.945l6.993-16.885c0.126-0.315,0.188-0.63,0.188-0.882c0-0.693-0.63-1.134-1.512-1.134h-1.134
		c-1.449,0-2.331-0.693-2.331-1.953c0-1.26,0.882-1.953,2.331-1.953h9.009c1.513,0,2.395,0.693,2.395,1.953
		c0,1.071-0.819,1.89-1.953,1.953c-0.819,0-1.134,0.189-1.449,1.008l-11.781,27.28c-3.214,7.372-4.536,8.506-10.018,8.506
		c-2.521,0-3.592-0.63-3.592-2.142c0-1.261,0.757-1.828,2.331-1.891c3.718-0.189,4.222-0.567,5.733-3.969l1.135-2.458
		c0.126-0.315,0.188-0.63,0.188-0.819c0-0.188-0.062-0.44-0.188-0.756L525.96,18.945c-0.378-0.819-0.63-1.008-1.512-1.008h-0.126
		c-1.134,0-2.016-0.882-2.016-1.953c0-1.26,0.882-1.953,2.394-1.953h9.577c1.512,0,2.394,0.693,2.394,1.953
		c0,1.26-0.882,1.953-2.394,1.953h-1.071c-0.882,0-1.513,0.441-1.513,1.134c0,0.315,0.063,0.567,0.189,0.882L539.254,36.837z"/>
	<path fill="#FFFFFF" d="M591.669,37.72c0,1.07,0.441,1.512,1.512,1.512h3.718c1.638,0,2.583,0.756,2.583,2.079
		s-0.945,2.079-2.583,2.079H582.03c-1.575,0-2.521-0.756-2.521-2.079s0.945-2.079,2.521-2.079h2.521c1.07,0,1.512-0.441,1.512-1.512
		V7.1c0-1.134-0.441-1.575-1.512-1.575h-2.521c-1.575,0-2.521-0.756-2.521-2.079c0-1.323,0.945-2.079,2.521-2.079h18.649
		c3.843,0,6.615,0.63,8.946,2.016c3.276,1.953,5.229,5.796,5.229,10.396c0,4.726-2.017,8.695-5.419,10.711
		c-2.394,1.448-4.851,1.953-9.387,1.953h-6.868c-1.07,0-1.512,0.44-1.512,1.512V37.72z M599.482,22.221
		c3.276,0,5.229-0.567,6.867-1.89c1.765-1.449,2.772-3.843,2.772-6.553c0-2.646-1.008-5.103-2.709-6.426
		c-1.639-1.26-3.97-1.827-7.561-1.827h-5.671c-1.07,0-1.512,0.441-1.512,1.575v13.546c0,1.134,0.441,1.575,1.512,1.575H599.482z"/>
	<path fill="#FFFFFF" d="M628.335,37.909c0,1.134,0.441,1.575,1.512,1.575h0.883c1.512,0,2.394,0.693,2.394,1.953
		s-0.882,1.953-2.394,1.953h-10.585c-1.513,0-2.395-0.693-2.395-1.953s0.882-1.953,2.395-1.953h1.386
		c1.071,0,1.513-0.441,1.513-1.575v-18.46c0-1.071-0.441-1.512-1.513-1.512h-1.386c-1.513,0-2.395-0.693-2.395-1.953
		c0-1.26,0.882-1.953,2.395-1.953h5.796c1.701,0,2.395,0.693,2.395,2.395V37.909z M628.839,4.139c0,1.827-1.575,3.402-3.402,3.402
		c-1.89,0-3.465-1.575-3.465-3.465c0-1.89,1.512-3.402,3.402-3.402C627.327,0.674,628.839,2.186,628.839,4.139z"/>
	<path fill="#FFFFFF" d="M692.092,4.328c0-1.827,0.882-2.961,2.457-2.961s2.457,1.134,2.457,2.961v9.135
		c0,2.142-1.008,3.339-2.709,3.339c-0.883,0-1.827-0.441-2.269-1.134c-0.252-0.441-0.252-0.441-0.882-2.898
		c-1.197-4.663-5.797-7.624-11.908-7.624c-9.64,0-14.994,6.174-14.994,17.263c0,4.851,1.134,8.947,3.339,12.097
		c2.457,3.465,6.174,5.103,11.529,5.103c4.284,0,7.372-1.26,9.577-3.906c1.07-1.26,1.07-1.323,2.331-4.788
		c0.504-1.512,1.323-2.143,2.835-2.143c1.764,0,3.024,1.071,3.024,2.521c0,1.575-0.945,4.158-2.205,6.048
		c-3.088,4.537-8.506,6.931-15.625,6.931c-13.357,0-20.98-8.064-20.98-22.051c0-13.735,7.561-21.736,20.603-21.736
		c4.347,0,7.435,0.882,9.954,2.898c1.953,1.512,2.772,2.394,3.466,3.717V4.328z"/>
	<path fill="#FFFFFF" d="M732.915,28.71c0,9.262-6.111,15.436-15.437,15.436c-9.576,0-15.562-6.111-15.562-15.813
		c0-9.136,6.111-15.058,15.499-15.058C726.992,13.274,732.915,19.197,732.915,28.71z M707.461,28.521
		c0,6.931,3.97,11.529,9.955,11.529c6.048,0,9.954-4.473,9.954-11.277c0-3.275-0.63-5.48-2.079-7.497
		c-1.89-2.583-4.536-3.906-7.812-3.906C711.493,17.37,707.461,21.906,707.461,28.521z"/>
	<path fill="#FFFFFF" d="M768.321,28.71c0,9.262-6.111,15.436-15.437,15.436c-9.576,0-15.562-6.111-15.562-15.813
		c0-9.136,6.111-15.058,15.499-15.058C762.398,13.274,768.321,19.197,768.321,28.71z M742.866,28.521
		c0,6.931,3.97,11.529,9.955,11.529c6.048,0,9.954-4.473,9.954-11.277c0-3.275-0.63-5.48-2.079-7.497
		c-1.89-2.583-4.536-3.906-7.812-3.906C746.899,17.37,742.866,21.906,742.866,28.521z"/>
	<path fill="#FFFFFF" d="M782.62,32.365c-0.567,0.504-0.63,0.63-0.63,1.449v4.095c0,1.134,0.44,1.575,1.512,1.575h0.819
		c1.512,0,2.395,0.693,2.395,1.953s-0.883,1.953-2.395,1.953h-10.585c-1.512,0-2.394-0.693-2.394-1.953s0.882-1.953,2.394-1.953
		h1.449c1.071,0,1.513-0.441,1.513-1.575V6.848c0-1.134-0.441-1.575-1.513-1.575h-1.512c-1.513,0-2.395-0.693-2.395-1.953
		c0-1.26,0.882-1.953,2.395-1.953h5.922c1.701,0,2.395,0.693,2.395,2.394v24.256l9.828-8.379c0.315-0.252,0.504-0.567,0.504-0.819
		c0-0.441-0.44-0.882-0.882-0.882h-0.314c-1.261,0-2.143-0.819-2.143-1.953c0-1.26,0.882-1.953,2.395-1.953h10.206
		c1.513,0,2.395,0.693,2.395,1.953c0,1.26-0.882,1.953-2.395,1.953h-1.323c-0.692,0-0.818,0.063-1.322,0.504l-6.301,5.355
		c-0.567,0.504-0.693,0.756-0.693,1.197c0,0.252,0.063,0.44,0.378,0.881l8.254,12.791c0.504,0.692,0.693,0.818,1.512,0.818h0.378
		c1.261,0,2.143,0.818,2.143,1.953c0,1.26-0.882,1.953-2.395,1.953h-8.694c-1.512,0-2.394-0.693-2.394-1.953
		c0-1.135,0.63-1.764,2.016-1.953c0.756-0.126,1.134-0.504,1.134-1.07c0-0.253-0.126-0.568-0.314-0.883l-6.175-9.514L782.62,32.365z
		"/>
	<path fill="#FFFFFF" d="M817.396,19.764c1.701-4.221,5.418-6.489,10.773-6.489c8.82,0,14.176,5.67,14.176,15.122
		c0,5.48-1.197,9.135-4.032,11.906c-2.521,2.521-5.985,3.844-10.144,3.844c-5.481,0-9.514-2.457-11.025-6.741v3.906
		c0,1.513-0.567,2.079-2.079,2.079h-5.859c-1.513,0-2.395-0.693-2.395-1.953s0.882-1.953,2.395-1.953h1.638
		c0.882,0,1.261-0.378,1.261-1.26V6.596c0-0.945-0.379-1.323-1.261-1.323h-1.638c-1.513,0-2.395-0.693-2.395-1.953
		c0-1.26,0.882-1.953,2.395-1.953h6.174c1.449,0,2.017,0.567,2.017,2.079V19.764z M817.206,28.521
		c0,7.246,3.592,11.529,9.766,11.529c5.923,0,9.829-4.473,9.829-11.277c0-6.867-3.844-11.403-9.766-11.403
		C821.05,17.37,817.206,21.717,817.206,28.521z"/>
	<path fill="#FFFFFF" d="M877.751,28.71c0,9.262-6.111,15.436-15.437,15.436c-9.576,0-15.562-6.111-15.562-15.813
		c0-9.136,6.111-15.058,15.499-15.058C871.828,13.274,877.751,19.197,877.751,28.71z M852.297,28.521
		c0,6.931,3.97,11.529,9.955,11.529c6.048,0,9.954-4.473,9.954-11.277c0-3.275-0.63-5.48-2.079-7.497
		c-1.89-2.583-4.536-3.906-7.812-3.906C856.329,17.37,852.297,21.906,852.297,28.521z"/>
	<path fill="#FFFFFF" d="M913.156,28.71c0,9.262-6.111,15.436-15.437,15.436c-9.576,0-15.562-6.111-15.562-15.813
		c0-9.136,6.111-15.058,15.499-15.058C907.234,13.274,913.156,19.197,913.156,28.71z M887.702,28.521
		c0,6.931,3.97,11.529,9.955,11.529c6.048,0,9.954-4.473,9.954-11.277c0-3.275-0.63-5.48-2.079-7.497
		c-1.89-2.583-4.536-3.906-7.812-3.906C891.735,17.37,887.702,21.906,887.702,28.521z"/>
	<path fill="#FFFFFF" d="M927.456,32.365c-0.567,0.504-0.63,0.63-0.63,1.449v4.095c0,1.134,0.44,1.575,1.512,1.575h0.819
		c1.512,0,2.395,0.693,2.395,1.953s-0.883,1.953-2.395,1.953h-10.585c-1.512,0-2.394-0.693-2.394-1.953s0.882-1.953,2.394-1.953
		h1.449c1.071,0,1.513-0.441,1.513-1.575V6.848c0-1.134-0.441-1.575-1.513-1.575h-1.512c-1.513,0-2.395-0.693-2.395-1.953
		c0-1.26,0.882-1.953,2.395-1.953h5.922c1.701,0,2.395,0.693,2.395,2.394v24.256l9.828-8.379c0.315-0.252,0.504-0.567,0.504-0.819
		c0-0.441-0.44-0.882-0.882-0.882h-0.314c-1.261,0-2.143-0.819-2.143-1.953c0-1.26,0.882-1.953,2.395-1.953h10.206
		c1.513,0,2.395,0.693,2.395,1.953c0,1.26-0.882,1.953-2.395,1.953h-1.323c-0.692,0-0.818,0.063-1.322,0.504l-6.301,5.355
		c-0.567,0.504-0.693,0.756-0.693,1.197c0,0.252,0.063,0.44,0.378,0.881l8.254,12.791c0.504,0.692,0.693,0.818,1.512,0.818h0.378
		c1.261,0,2.143,0.818,2.143,1.953c0,1.26-0.882,1.953-2.395,1.953h-8.694c-1.512,0-2.394-0.693-2.394-1.953
		c0-1.135,0.63-1.764,2.016-1.953c0.756-0.126,1.134-0.504,1.134-1.07c0-0.253-0.126-0.568-0.314-0.883l-6.175-9.514L927.456,32.365
		z"/>
</g>
</svg>
