<?xml version="1.0" encoding="utf-8"?>
<!-- Generator: Adobe Illustrator 16.2.1, SVG Export Plug-In . SVG Version: 6.00 Build 0)  -->
<!DOCTYPE svg PUBLIC "-//W3C//DTD SVG 1.1//EN" "http://www.w3.org/Graphics/SVG/1.1/DTD/svg11.dtd">
<svg version="1.1" id="Layer_1" xmlns="http://www.w3.org/2000/svg" xmlns:xlink="http://www.w3.org/1999/xlink" x="0px" y="0px"
	 width="248.349px" height="45.425px" viewBox="0 0 248.349 45.425" enable-background="new 0 0 248.349 45.425"
	 xml:space="preserve">
<g>
	<g>
		<g>
			<polygon fill="#FFFFFF" points="125.138,9.435 125.138,2.645 96.812,2.645 96.812,43.39 125.138,43.39 125.138,36.596 
				103.601,36.596 103.601,26.414 124.099,26.414 124.099,19.623 103.601,19.623 103.601,9.435 			"/>
			<polygon fill="#FFFFFF" points="146.156,43.39 146.156,2.646 152.948,2.646 152.948,36.596 172.539,36.596 172.539,43.39 			"/>
			<polygon fill="#FFFFFF" points="178.074,43.39 178.074,2.646 184.866,2.646 184.866,36.596 204.455,36.596 204.455,43.39 			"/>
			<rect x="132.265" y="2.646" fill="#FFFFFF" width="6.789" height="40.744"/>
			<path fill="#FFFFFF" d="M12.017,12.995c-2.615,2.626-4.223,6.213-4.225,10.208c0.002,3.998,1.607,7.582,4.225,10.203
				c2.624,2.617,6.211,4.229,10.208,4.229c3.993,0,7.579-1.609,10.202-4.229c2.618-2.621,4.225-6.205,4.225-10.203
				c0-3.994-1.604-7.581-4.225-10.208c-2.623-2.613-6.209-4.218-10.202-4.219C18.228,8.777,14.64,10.382,12.017,12.995 M1,23.203
				C1.003,11.481,10.5,1.984,22.225,1.981c11.721,0.003,21.217,9.5,21.221,21.222c-0.003,11.72-9.5,21.218-21.221,21.222
				C10.5,44.421,1.003,34.923,1,23.203"/>
			<path fill="#FFFFFF" d="M64.435,19.623V9.435h13.679c2.812,0.002,5.094,2.277,5.098,5.095c-0.004,2.807-2.283,5.084-5.098,5.092
				L64.435,19.623L64.435,19.623z M81.523,25.91c4.9-1.473,8.479-6,8.479-11.376c0-6.567-5.318-11.883-11.888-11.884H57.643V43.39
				h6.792V26.414h9.458L84.139,43.39h7.92L81.523,25.91z"/>
			<path fill="#FFFFFF" d="M52.831,6.98c0,2.759-2.238,4.999-4.997,4.999c-2.766,0-5.001-2.24-5.001-4.999c0-2.76,2.236-5,5.001-5
				C50.593,1.981,52.831,4.22,52.831,6.98"/>
			<polygon fill="#FFFFFF" points="234.731,2.646 226.479,2.646 216.027,17.771 205.574,2.646 197.321,2.646 212.623,24.798 
				212.623,43.39 219.418,43.39 219.418,24.812 			"/>
			<g>
				<path fill="#FFFFFF" d="M243.347,11.023c-2.323,0-4.203-1.883-4.203-4.201c0-2.323,1.88-4.207,4.203-4.207
					c2.316,0,4.201,1.884,4.201,4.207C247.548,9.14,245.663,11.023,243.347,11.023 M243.347,1.816c-2.767,0-5.008,2.241-5.008,5.006
					c0,2.762,2.241,5.003,5.008,5.003c2.759,0,5.002-2.241,5.002-5.003C248.349,4.058,246.106,1.816,243.347,1.816"/>
				<path fill="#FFFFFF" d="M242.133,5.084h1.973c0.354,0,0.638,0.282,0.641,0.638c-0.003,0.353-0.283,0.638-0.641,0.638h-1.973
					V5.084z M245.591,5.722c0-0.824-0.662-1.488-1.485-1.488h-2.813v5.1h0.844V7.208h1.432l1.022,2.125h0.943l-1.048-2.174
					C245.124,6.994,245.591,6.413,245.591,5.722"/>
			</g>
		</g>
	</g>
</g>
</svg>
