<?xml version="1.0" encoding="utf-8"?>
<!-- Generator: Adobe Illustrator 16.2.1, SVG Export Plug-In . SVG Version: 6.00 Build 0)  -->
<!DOCTYPE svg PUBLIC "-//W3C//DTD SVG 1.1//EN" "http://www.w3.org/Graphics/SVG/1.1/DTD/svg11.dtd">
<svg version="1.1" id="Layer_1" xmlns="http://www.w3.org/2000/svg" xmlns:xlink="http://www.w3.org/1999/xlink" x="0px" y="0px"
	 width="906.285px" height="253.795px" viewBox="-331.126 -143.483 906.285 253.795"
	 enable-background="new -331.126 -143.483 906.285 253.795" xml:space="preserve">
<g>
	<path fill="#00ADEF" d="M-281.927-141.833c13.649,0,21.599,2.1,27.449,7.2c5.1,4.65,7.65,10.95,7.65,19.199
		c0,15.449-7.35,23.549-22.949,25.949c8.7,0.75,13.199,4.8,15.899,14.25l6.6,20.849c0.75,2.1,1.5,2.7,3.75,2.7h2.7
		c3.9,0,6.15,1.8,6.15,4.95s-2.25,4.95-6.15,4.95h-11.85c-3.6,0-4.8-0.9-5.85-4.35l-8.55-26.849
		c-2.85-9.149-7.649-12.299-18.449-12.299h-13.049c-2.55,0-3.6,1.05-3.6,3.6v26.399c0,2.55,1.05,3.6,3.6,3.6h4.95
		c3.9,0,6.15,1.8,6.15,4.95s-2.25,4.95-6.15,4.95h-31.349c-3.9,0-6.15-1.8-6.15-4.95s2.25-4.95,6.15-4.95h5.85
		c2.55,0,3.6-1.05,3.6-3.6v-72.897c0-2.7-1.05-3.75-3.6-3.75h-5.85c-3.9,0-6.15-1.8-6.15-4.95s2.25-4.95,6.15-4.95H-281.927z
		 M-285.827-95.335c17.399,0,25.349-5.85,25.349-18.449c0-12.149-6.9-18.149-20.849-18.149h-17.25c-2.55,0-3.6,1.05-3.6,3.75v29.099
		c0,2.7,1.05,3.75,3.6,3.75H-285.827z"/>
	<path fill="#00ADEF" d="M-174.829-56.187c-4.5,11.399-12.299,16.199-26.249,16.199c-16.2,0-25.649-7.8-25.649-21.299
		c0-9,4.35-15.75,12.599-19.5c4.5-1.95,14.1-3.3,23.849-3.3l10.8,0.3h0.75c1.8,0,2.85-0.75,2.85-2.25v-0.3
		c0-7.95-0.9-10.799-4.05-13.649c-3-2.4-7.5-3.75-13.35-3.75c-5.85,0-10.199,1.05-13.049,3.3c-3,2.4-3.75,3.75-4.65,8.399
		c-0.9,3.6-3.15,5.7-6.45,5.7c-3.75,0-6.45-2.85-6.45-6.6c0-6.3,4.8-13.5,11.399-16.799c4.65-2.55,11.25-3.75,19.199-3.75
		c10.95,0,19.049,2.4,23.849,7.2c4.35,4.5,5.7,9.15,5.7,19.799v31.649c0,2.7,1.05,3.75,3.6,3.75h3.45c3.6,0,5.7,1.65,5.7,4.65
		s-2.1,4.65-5.7,4.65h-12.449c-4.05,0-5.7-1.65-5.7-5.55V-56.187z M-205.578-72.986c-4.95,1.8-7.95,6-7.95,11.1
		c0,7.5,5.7,12.149,14.85,12.149c7.649,0,14.249-2.85,17.999-7.8c2.55-3.3,4.8-10.199,4.8-14.999c0-2.4-0.9-2.7-7.8-2.7
		C-196.428-75.236-200.778-74.786-205.578-72.986z"/>
	<path fill="#00ADEF" d="M-94.88-105.835c0-3.6,1.95-5.85,4.95-5.85c3.15,0,5.1,2.25,5.1,6.149v11.55c0,3.9-1.8,6.149-5.1,6.149
		c-1.95,0-3.75-0.9-4.8-2.55c-0.6-0.9-0.6-0.9-1.95-4.95c-1.5-4.8-9.15-8.399-17.549-8.399c-9.9,0-16.5,4.2-16.5,10.5
		c0,5.7,3,7.95,12.45,9.299l9.299,1.35c9.45,1.35,14.1,2.7,18,5.55c4.5,3.3,7.05,8.55,7.05,14.849
		c0,13.5-10.95,22.199-28.049,22.199c-11.55,0-18.75-3.75-22.499-11.549v3.75c0,3.75-1.8,6-4.95,6s-5.1-2.25-5.1-6.15v-12.599
		c0-3.75,2.1-6.15,5.55-6.15c2.55,0,3.45,1.05,5.85,6.3c3,6.899,9.6,10.649,18.599,10.649c10.35,0,17.399-4.65,17.399-11.25
		c0-3.15-1.35-6-3.75-7.5c-2.25-1.35-5.4-2.1-12.15-3l-8.7-1.2c-8.399-1.05-13.199-2.85-16.649-5.85c-3.45-3-5.55-8.1-5.55-13.5
		c0-7.35,3-12.75,9.299-16.499c5.4-3.3,11.55-4.95,18.75-4.95c7.95,0,14.25,2.1,17.849,6.15c0.75,0.75,1.05,1.2,3.15,4.35V-105.835z
		"/>
	<path fill="#00ADEF" d="M-50.481-29.638c0,2.7,1.05,3.75,3.6,3.75h3.75c3.6,0,5.7,1.65,5.7,4.65c0,3-2.1,4.65-5.7,4.65H-69.98
		c-3.6,0-5.7-1.65-5.7-4.65c0-3,2.1-4.65,5.7-4.65h3.3c2.55,0,3.6-1.05,3.6-3.75v-69.147c0-2.55-1.05-3.6-3.6-3.6h-3.3
		c-3.6,0-5.7-1.65-5.7-4.65c0-3,2.1-4.649,5.7-4.649h13.799c4.05,0,5.7,1.65,5.7,5.7v6.75c0,0.45,0.15,0.6,0.45,0.6
		c0.15,0,0.3-0.15,0.3-0.3c4.8-9.75,13.049-14.55,25.349-14.55c10.05,0,18,3,23.999,9.15c6.75,6.75,9.6,15.149,9.6,27.599
		c0,22.799-13.049,36.749-34.048,36.749c-10.95,0-19.049-4.05-24.149-12.299c-0.3-0.3-0.45-0.45-0.75-0.45
		c-0.45,0-0.75,0.3-0.75,0.9V-29.638z M-50.331-77.036c0,8.1,1.35,13.5,4.65,18.149c4.2,5.85,10.649,9.149,18.299,9.149
		c14.25,0,23.399-10.5,23.399-26.999c0-16.199-9-26.999-22.799-26.999C-41.181-103.735-50.331-93.385-50.331-77.036z"/>
	<path fill="#00ADEF" d="M41.618-98.035c4.05-10.05,12.899-15.45,25.649-15.45c20.999,0,33.748,13.5,33.748,35.999
		c0,13.05-2.85,21.75-9.6,28.349c-6,6-14.249,9.149-24.148,9.149c-13.05,0-22.649-5.85-26.249-16.049v9.3
		c0,3.6-1.351,4.95-4.95,4.95H22.119c-3.6,0-5.7-1.65-5.7-4.65s2.1-4.65,5.7-4.65h3.899c2.101,0,3-0.9,3-3v-75.297
		c0-2.25-0.899-3.149-3-3.149h-3.899c-3.6,0-5.7-1.65-5.7-4.65c0-3,2.1-4.65,5.7-4.65h14.699c3.45,0,4.8,1.35,4.8,4.95V-98.035z
		 M41.168-77.186c0,17.249,8.55,27.449,23.249,27.449c14.1,0,23.399-10.649,23.399-26.849c0-16.349-9.149-27.148-23.249-27.148
		C50.317-103.735,41.168-93.385,41.168-77.186z"/>
	<path fill="#00ADEF" d="M126.217-73.736c-1.05,0-1.65,0.45-1.65,1.65c0,4.8,2.7,11.25,6.75,15.6c4.2,4.5,10.2,6.75,17.999,6.75
		c6.15,0,11.1-1.5,15-4.5c2.25-1.65,2.399-2.1,5.1-6.299c0.9-1.65,2.7-2.7,4.5-2.7c3.149,0,5.699,2.55,5.699,5.7
		c0,2.1-1.05,4.2-3.449,6.75c-7.2,7.649-15.6,10.799-28.35,10.799c-13.649,0-23.249-4.5-29.849-13.799
		c-4.35-6.3-6.449-13.35-6.449-22.049c0-23.549,13.649-37.648,36.298-37.648c15.45,0,25.649,5.7,31.049,17.25
		c2.25,4.95,3.45,10.95,3.45,16.5c0,4.35-1.649,6-5.7,6H126.217z M167.764-83.036c1.2,0,1.801-0.6,1.801-1.5
		c0-4.95-3-10.95-7.351-14.7c-3.6-3-8.399-4.5-14.249-4.5c-8.699,0-15.299,3.45-19.649,10.199c-1.8,3-3.3,7.05-3.3,9.15
		c0,0.9,0.601,1.35,1.65,1.35H167.764z"/>
	<path fill="#00ADEF" d="M215.167-96.235c2.399-7.5,3.75-9.75,7.05-12.45c3.899-3,9.6-4.8,14.999-4.8c4.2,0,6.75,1.95,6.75,5.25
		c0,2.55-2.101,4.95-4.2,4.95c-0.15,0-0.6,0-1.05-0.15c-0.9-0.15-1.8-0.3-2.85-0.3c-5.101,0-10.2,2.1-13.8,5.85
		c-4.35,4.5-6.45,11.1-6.45,20.099v23.099c0,2.55,1.051,3.6,3.601,3.6h5.85c3.6,0,5.699,1.65,5.699,4.65s-2.1,4.65-5.699,4.65
		h-29.249c-3.6,0-5.699-1.65-5.699-4.65s2.1-4.65,5.699-4.65h3.6c2.55,0,3.601-1.05,3.601-3.6v-44.098c0-2.55-1.051-3.6-3.601-3.6
		h-3.6c-3.6,0-5.699-1.65-5.699-4.65c0-3,2.1-4.649,5.699-4.649h13.649c4.05,0,5.7,1.65,5.7,5.7V-96.235z"/>
	<path fill="#00ADEF" d="M276.215-96.235c2.399-7.5,3.749-9.75,7.05-12.45c3.899-3,9.6-4.8,14.999-4.8c4.2,0,6.75,1.95,6.75,5.25
		c0,2.55-2.101,4.95-4.2,4.95c-0.15,0-0.6,0-1.05-0.15c-0.9-0.15-1.8-0.3-2.85-0.3c-5.101,0-10.2,2.1-13.8,5.85
		c-4.35,4.5-6.45,11.1-6.45,20.099v23.099c0,2.55,1.051,3.6,3.601,3.6h5.85c3.6,0,5.699,1.65,5.699,4.65s-2.1,4.65-5.699,4.65
		h-29.249c-3.6,0-5.7-1.65-5.7-4.65s2.101-4.65,5.7-4.65h3.6c2.55,0,3.601-1.05,3.601-3.6v-44.098c0-2.55-1.051-3.6-3.601-3.6h-3.6
		c-3.6,0-5.7-1.65-5.7-4.65c0-3,2.101-4.649,5.7-4.649h13.649c4.05,0,5.7,1.65,5.7,5.7V-96.235z"/>
	<path fill="#00ADEF" d="M351.662-57.387c0.6,1.5,0.75,2.1,1.199,3.75c0.15-0.6,0.301-1.35,0.301-1.5
		c0.149-0.3,0.449-1.2,0.899-2.25l16.649-40.198c0.3-0.75,0.45-1.5,0.45-2.1c0-1.65-1.5-2.7-3.6-2.7h-2.7
		c-3.45,0-5.55-1.65-5.55-4.65c0-3,2.1-4.649,5.55-4.649h21.449c3.6,0,5.699,1.65,5.699,4.649c0,2.55-1.949,4.5-4.649,4.65
		c-1.95,0-2.7,0.45-3.45,2.4l-28.049,64.947c-7.649,17.549-10.799,20.25-23.849,20.25c-6,0-8.55-1.5-8.55-5.1c0-3,1.8-4.35,5.55-4.5
		c8.85-0.45,10.05-1.35,13.649-9.45l2.7-5.85c0.3-0.75,0.45-1.5,0.45-1.95c0-0.45-0.15-1.05-0.45-1.8l-25.35-56.548
		c-0.899-1.95-1.5-2.4-3.6-2.4h-0.3c-2.7,0-4.8-2.1-4.8-4.65c0-3,2.1-4.649,5.7-4.649h22.799c3.6,0,5.699,1.65,5.699,4.649
		c0,3-2.1,4.65-5.699,4.65h-2.55c-2.101,0-3.601,1.05-3.601,2.7c0,0.75,0.15,1.35,0.45,2.1L351.662-57.387z"/>
	<path fill="#00ADEF" d="M476.461-55.287c0,2.55,1.05,3.6,3.6,3.6h8.851c3.899,0,6.149,1.8,6.149,4.95s-2.25,4.95-6.149,4.95
		h-35.399c-3.749,0-5.999-1.8-5.999-4.95s2.25-4.95,5.999-4.95h6c2.55,0,3.6-1.05,3.6-3.6v-72.897c0-2.7-1.05-3.75-3.6-3.75h-6
		c-3.749,0-5.999-1.8-5.999-4.95s2.25-4.95,5.999-4.95h44.398c9.149,0,15.749,1.5,21.299,4.8c7.8,4.65,12.45,13.799,12.45,24.749
		c0,11.25-4.8,20.699-12.899,25.499c-5.7,3.45-11.55,4.65-22.35,4.65h-16.35c-2.55,0-3.6,1.05-3.6,3.6V-55.287z M495.06-92.186
		c7.8,0,12.449-1.35,16.35-4.5c4.199-3.45,6.6-9.149,6.6-15.599c0-6.3-2.4-12.149-6.45-15.299c-3.899-3-9.449-4.35-17.999-4.35
		h-13.5c-2.55,0-3.6,1.05-3.6,3.75v32.249c0,2.7,1.05,3.75,3.6,3.75H495.06z"/>
	<path fill="#00ADEF" d="M563.759-54.837c0,2.7,1.051,3.75,3.601,3.75h2.1c3.6,0,5.7,1.65,5.7,4.65s-2.101,4.65-5.7,4.65H544.26
		c-3.6,0-5.699-1.65-5.699-4.65s2.1-4.65,5.699-4.65h3.3c2.55,0,3.601-1.05,3.601-3.75v-43.948c0-2.55-1.051-3.6-3.601-3.6h-3.3
		c-3.6,0-5.699-1.65-5.699-4.65c0-3,2.1-4.649,5.699-4.649h13.8c4.05,0,5.699,1.65,5.699,5.7V-54.837z M564.959-135.234
		c0,4.35-3.75,8.1-8.1,8.1c-4.5,0-8.25-3.75-8.25-8.25s3.601-8.1,8.101-8.1C561.359-143.483,564.959-139.884,564.959-135.234z"/>
	<path fill="#00ADEF" d="M-248.479,15.216c0-4.35,2.1-7.05,5.85-7.05s5.85,2.7,5.85,7.05v21.749c0,5.1-2.4,7.95-6.45,7.95
		c-2.1,0-4.35-1.051-5.4-2.7c-0.6-1.05-0.6-1.05-2.1-6.899c-2.85-11.1-13.8-18.15-28.349-18.15c-22.949,0-35.698,14.7-35.698,41.1
		c0,11.549,2.7,21.299,7.95,28.799c5.85,8.249,14.699,12.148,27.449,12.148c10.2,0,17.549-3,22.799-9.299
		c2.55-3,2.55-3.15,5.55-11.4c1.2-3.6,3.15-5.1,6.75-5.1c4.2,0,7.2,2.551,7.2,6c0,3.75-2.25,9.899-5.25,14.399
		c-7.35,10.8-20.249,16.499-37.198,16.499c-31.799,0-49.948-19.199-49.948-52.498c0-32.698,18-51.748,49.048-51.748
		c10.35,0,17.699,2.101,23.699,6.9c4.65,3.6,6.6,5.699,8.25,8.85V15.216z"/>
	<path fill="#00ADEF" d="M-151.279,73.263c0,22.05-14.549,36.749-36.749,36.749c-22.799,0-37.048-14.55-37.048-37.648
		c0-21.749,14.549-35.849,36.898-35.849C-165.379,36.515-151.279,50.615-151.279,73.263z M-211.877,72.814
		c0,16.499,9.45,27.449,23.699,27.449c14.399,0,23.699-10.65,23.699-26.85c0-7.799-1.5-13.049-4.95-17.85
		c-4.5-6.149-10.799-9.299-18.599-9.299C-202.277,46.265-211.877,57.064-211.877,72.814z"/>
	<path fill="#00ADEF" d="M-66.98,73.263c0,22.05-14.549,36.749-36.749,36.749c-22.799,0-37.048-14.55-37.048-37.648
		c0-21.749,14.549-35.849,36.898-35.849C-81.079,36.515-66.98,50.615-66.98,73.263z M-127.577,72.814
		c0,16.499,9.45,27.449,23.699,27.449c14.399,0,23.699-10.65,23.699-26.85c0-7.799-1.5-13.049-4.95-17.85
		c-4.5-6.149-10.799-9.299-18.599-9.299C-117.978,46.265-127.577,57.064-127.577,72.814z"/>
	<path fill="#00ADEF" d="M-32.928,81.963c-1.35,1.2-1.5,1.5-1.5,3.45v9.75c0,2.699,1.05,3.749,3.6,3.749h1.95
		c3.6,0,5.7,1.649,5.7,4.649s-2.1,4.65-5.7,4.65h-25.199c-3.6,0-5.7-1.65-5.7-4.65s2.1-4.649,5.7-4.649h3.45
		c2.55,0,3.6-1.05,3.6-3.749V21.216c0-2.7-1.05-3.75-3.6-3.75h-3.6c-3.6,0-5.7-1.65-5.7-4.65s2.1-4.649,5.7-4.649h14.1
		c4.05,0,5.7,1.649,5.7,5.7v57.747l23.399-19.949c0.75-0.6,1.2-1.35,1.2-1.95c0-1.049-1.05-2.1-2.1-2.1h-0.75
		c-3,0-5.1-1.949-5.1-4.65c0-2.999,2.1-4.648,5.7-4.648H12.22c3.6,0,5.7,1.649,5.7,4.648c0,3-2.1,4.65-5.7,4.65H9.07
		c-1.65,0-1.95,0.15-3.149,1.2l-15,12.749c-1.35,1.2-1.65,1.801-1.65,2.85c0,0.601,0.15,1.051,0.9,2.101L9.82,96.962
		c1.2,1.65,1.65,1.95,3.6,1.95h0.9c3,0,5.1,1.95,5.1,4.649c0,3-2.1,4.65-5.7,4.65H-6.979c-3.6,0-5.7-1.65-5.7-4.65
		c0-2.699,1.5-4.199,4.8-4.649c1.8-0.3,2.7-1.2,2.7-2.55c0-0.6-0.3-1.35-0.75-2.1l-14.7-22.649L-32.928,81.963z"/>
	<path fill="#00ADEF" d="M49.872,51.964c4.05-10.049,12.899-15.449,25.649-15.449c20.999,0,33.748,13.5,33.748,35.998
		c0,13.051-2.85,21.75-9.6,28.35c-6,6-14.249,9.149-24.148,9.149c-13.05,0-22.649-5.85-26.249-16.05v9.301
		c0,3.6-1.351,4.949-4.95,4.949H30.373c-3.6,0-5.7-1.65-5.7-4.65s2.101-4.649,5.7-4.649h3.899c2.101,0,3-0.899,3-2.999V20.616
		c0-2.249-0.899-3.149-3-3.149h-3.899c-3.6,0-5.7-1.65-5.7-4.65s2.101-4.649,5.7-4.649h14.699c3.45,0,4.8,1.351,4.8,4.95V51.964z
		 M49.422,72.814c0,17.249,8.55,27.449,23.249,27.449c14.1,0,23.399-10.65,23.399-26.85c0-16.35-9.149-27.148-23.249-27.148
		C58.571,46.265,49.422,56.615,49.422,72.814z"/>
	<path fill="#00ADEF" d="M193.568,73.263c0,22.05-14.55,36.749-36.749,36.749c-22.799,0-37.048-14.55-37.048-37.648
		c0-21.749,14.549-35.849,36.898-35.849C179.469,36.515,193.568,50.615,193.568,73.263z M132.97,72.814
		c0,16.499,9.449,27.449,23.699,27.449c14.399,0,23.699-10.65,23.699-26.85c0-7.799-1.5-13.049-4.95-17.85
		c-4.5-6.149-10.8-9.299-18.6-9.299C142.57,46.265,132.97,57.064,132.97,72.814z"/>
	<path fill="#00ADEF" d="M277.868,73.263c0,22.05-14.55,36.749-36.749,36.749c-22.799,0-37.048-14.55-37.048-37.648
		c0-21.749,14.549-35.849,36.898-35.849C263.768,36.515,277.868,50.615,277.868,73.263z M217.27,72.814
		c0,16.499,9.449,27.449,23.699,27.449c14.399,0,23.699-10.65,23.699-26.85c0-7.799-1.5-13.049-4.95-17.85
		c-4.5-6.149-10.8-9.299-18.6-9.299C226.87,46.265,217.27,57.064,217.27,72.814z"/>
	<path fill="#00ADEF" d="M311.919,81.963c-1.35,1.2-1.5,1.5-1.5,3.45v9.75c0,2.699,1.05,3.749,3.6,3.749h1.95
		c3.6,0,5.7,1.649,5.7,4.649s-2.101,4.65-5.7,4.65h-25.199c-3.6,0-5.699-1.65-5.699-4.65s2.1-4.649,5.699-4.649h3.45
		c2.55,0,3.6-1.05,3.6-3.749V21.216c0-2.7-1.05-3.75-3.6-3.75h-3.6c-3.601,0-5.7-1.65-5.7-4.65s2.1-4.649,5.7-4.649h14.1
		c4.05,0,5.699,1.649,5.699,5.7v57.747l23.399-19.949c0.75-0.6,1.199-1.35,1.199-1.95c0-1.049-1.05-2.1-2.1-2.1h-0.75
		c-3,0-5.1-1.949-5.1-4.65c0-2.999,2.1-4.648,5.7-4.648h24.299c3.6,0,5.699,1.649,5.699,4.648c0,3-2.1,4.65-5.699,4.65h-3.15
		c-1.649,0-1.949,0.15-3.149,1.2l-15,12.749c-1.35,1.2-1.649,1.801-1.649,2.85c0,0.601,0.149,1.051,0.899,2.101l19.649,30.448
		c1.2,1.65,1.65,1.95,3.6,1.95h0.9c3,0,5.1,1.95,5.1,4.649c0,3-2.1,4.65-5.699,4.65h-20.699c-3.601,0-5.7-1.65-5.7-4.65
		c0-2.699,1.5-4.199,4.8-4.649c1.8-0.3,2.7-1.2,2.7-2.55c0-0.6-0.3-1.35-0.75-2.1l-14.699-22.649L311.919,81.963z"/>
</g>
</svg>
